<svg id="logo" viewBox="0 0 480 305" xmlns="http://www.w3.org/2000/svg">
    <path d="M309.801 132.3C317.401 145.4 324.901 158.3 332.301 171.3C335.401 176.8 340.601 182.3 340.701 187.9C340.701 193.2 335.401 198.6 332.301 204C325.001 216.7 317.701 229.4 310.401 242C309.901 242.8 309.501 243.7 308.801 245.2H401.001C370.801 193 340.901 141.1 310.701 88.7C309.201 91.1 308.001 93.1 306.901 95C270.001 159 233.001 223 196.101 287C190.601 296.6 182.201 301.5 171.001 301.3C160.201 301.1 152.401 295.9 147.101 286.7C101.901 208.5 56.7006 130.2 11.5006 52C5.90061 42.3 2.50061 32.6 7.30061 21.8C12.0006 11.5 20.2006 5.39996 31.5006 5.29996C94.8006 5.09996 158.201 5.09996 221.501 5.19997C242.001 5.19997 255.301 27.9 245.101 45.8C221.301 87.8 197.1 128.2 173 170C173 170 173 170 171.601 172.3C166.801 164.1 162.101 156.1 157.401 148C152.201 139.1 147.301 130 141.901 121.2C140.201 118.4 140.101 116.4 141.901 113.5C151.301 97.6 160.401 81.6 169.601 65.5C170.301 64.2 170.901 62.9 171.801 61.2H81.3006C111.501 113.6 141.401 165.4 171.601 217.9C178.001 207 184.001 196.7 189.901 186.4C222.001 130.8 254.101 75.2 286.201 19.5C297.401 0.0999651 323.801 0.199964 335.201 19.9C365.501 72.3 395.801 124.8 426.001 177.2C441.601 204.3 457.301 231.4 472.901 258.5C478.501 268.1 479.101 277.9 473.701 287.4C468.301 296.9 459.601 301.4 448.401 301.4C386.601 301.3 324.701 301.7 262.901 301.2C246.101 301.1 236.601 294.9 232.701 279.2C231.101 272.6 232.201 265.7 235.701 259.9C259.901 217.8 284.2 176.5 308.5 134.5C308.951 133.721 308.5 134.5 309.801 132.3Z"
          stroke="white" stroke-width="5" stroke-linecap="round"/>
    <path d="M399.001 60.4C414.299 60.4 426.701 47.9983 426.701 32.7C426.701 17.4017 414.299 5 399.001 5C383.703 5 371.301 17.4017 371.301 32.7C371.301 47.9983 383.703 60.4 399.001 60.4Z"
          stroke="white" stroke-width="5" stroke-linecap="round"/>
    <path d="M81.5008 301.3C96.7991 301.3 109.201 288.898 109.201 273.6C109.201 258.302 96.7991 245.9 81.5008 245.9C66.2025 245.9 53.8008 258.302 53.8008 273.6C53.8008 288.898 66.2025 301.3 81.5008 301.3Z"
          stroke="white" stroke-width="5" stroke-linecap="round"/>
</svg>
