<svg viewBox="0 0 275 315">
	<style type="text/css">
		.st0{fill:none;stroke:#FFF;stroke-width:3;stroke-linecap:round;stroke-linejoin:round;stroke-miterlimit:10;}
		.st1{fill:#000;}
		.st2{font-family:'ArialMT';fill:#FFF}
		.st3{font-size:36.8225px;}
	</style>
	<path id="apple-logo" class="st0" d="M209.9,165.6c0.4,40.7,35.7,54.2,36.1,54.4c-4.3,13.6-10.6,26.5-18.6,38.2
	c-11.2,16.4-22.8,32.7-41.2,33c-18,0.3-23.8-10.7-44.4-10.7s-27,10.3-44,11c-17.7,0.7-31.1-17.7-42.4-34
	c-23.1-33.4-40.7-94.3-17-135.5C50.1,101.7,71.1,88.7,94,88.4c17.4-0.3,33.8,11.7,44.4,11.7s30.5-14.5,51.5-12.3
	c8.8,0.4,33.4,3.5,49.2,26.7C237.7,115.2,209.6,131.5,209.9,165.6 M176.1,65.7c9.4-11.4,15.7-27.2,14-42.9
	c-13.5,0.5-29.9,9-39.6,20.4c-8.7,10.1-16.3,26.2-14.3,41.6C151.3,85.9,166.7,77,176.1,65.7"/>
	<rect id="remove-part" x="18.2" y="146.2" class="st1" width="23.9" height="48.5"/>
	<rect id="remove-part_1_" x="197.2" y="146.2" class="st1" width="23.9" height="48.5"/>
	<text id="text" transform="matrix(1 0 0 1 4.0635 180.2413)" class="st2 st3">“Think Different”</text>
</svg>
